<svg xmlns="http://www.w3.org/2000/svg" viewBox="0 0 97.45 76.75"><defs><style>.a{fill:#fff;}</style></defs><title>logo_w</title><path class="a" d="M96.4,22c-.5-2.4-2.5-6.8-2.5-7.7.1-1.2,3.5-4.2,3.3-4.6s-5.3.5-5.7.3a2.66,2.66,0,0,1-1.1-1C82.5-2.6,70.2-2,59.3,5.5,49.8,12,42.9,21,36.6,30.5c-4.9,7.4-11.5,8.7-19.6,6.8C11,35.8,5.6,32.9.2,30c-.8,6,1.5,14.4,6.2,21.2C16.2,65.6,31,72,47.2,75.8a38.7,38.7,0,0,0,19.7-.6C88.2,69.2,101.5,45.4,96.4,22ZM69.3,50.8c-9.3,8.9-25.5,4.5-31.5-6.1,7.4,1.1,12.2-1.8,15.5-7.5a7.35,7.35,0,0,1,1.6-1.9c5.1-5,9.7-5.6,13.5-1.8C73.6,38.6,74,46.3,69.3,50.8Zm11.9-34a2.9,2.9,0,1,1,2.9-2.9A2.9,2.9,0,0,1,81.2,16.8Z" transform="translate(-0.04 -0.05)"/><path class="a" d="M59.3,52.6c2.1.1,12.1-5.3,9.6-14.2C67.9,48.4,59.3,52.6,59.3,52.6Z" transform="translate(-0.04 -0.05)"/></svg>